<svg width="34" height="33" viewBox="0 0 34 33" fill="none" xmlns="http://www.w3.org/2000/svg">
<path d="M11.0445 29.6574C12.1564 29.6574 13.0578 28.756 13.0578 27.6441C13.0578 26.5322 12.1564 25.6309 11.0445 25.6309C9.93262 25.6309 9.03125 26.5322 9.03125 27.6441C9.03125 28.756 9.93262 29.6574 11.0445 29.6574Z" fill="#FF725E"/>
<path d="M24.1305 29.6574C25.2423 29.6574 26.1437 28.756 26.1437 27.6441C26.1437 26.5322 25.2423 25.6309 24.1305 25.6309C23.0186 25.6309 22.1172 26.5322 22.1172 27.6441C22.1172 28.756 23.0186 29.6574 24.1305 29.6574Z" fill="#FF725E"/>
<path d="M6.30031 9.52437H28.874L25.5522 21.151C25.4336 21.5729 25.1798 21.9443 24.8297 22.208C24.4797 22.4717 24.0527 22.6131 23.6144 22.6106H11.56C11.1217 22.6131 10.6947 22.4717 10.3446 22.208C9.99453 21.9443 9.74072 21.5729 9.6222 21.151L5.06719 5.22102C5.00699 5.01058 4.87985 4.82549 4.70501 4.69379C4.53018 4.5621 4.31719 4.49098 4.0983 4.49121H1.98438" stroke="#F34444" stroke-width="3.0199" stroke-linecap="round" stroke-linejoin="round"/>
</svg>
